HIERARCHY
ROOT hip
{
	OFFSET 0.000000 0.000000 0.000000 
	CHANNELS 6 Xposition Yposition Zposition Xrotation Zrotation Yrotation
	JOINT abdomen
	{
		OFFSET 0.000000 3.402643 0.000000 
		CHANNELS 3 Xrotation Zrotation Yrotation
		JOINT chest
		{
			OFFSET 0.000000 8.438565 -0.680529 
			CHANNELS 3 Xrotation Zrotation Yrotation
			JOINT neck
			{
				OFFSET 0.000000 10.207942 -0.272212 
				CHANNELS 3 Xrotation Zrotation Yrotation
				JOINT head
				{
					OFFSET 0.000000 3.130431 0.000000 
					CHANNELS 3 Xrotation Zrotation Yrotation
					End Site
					{
						OFFSET 0.000000 3.130435 0.000000 
					}
				}
			}
			JOINT lCollar
			{
				OFFSET 3.470700 6.669187 -0.816635 
				CHANNELS 3 Yrotation Zrotation Xrotation
				JOINT lShldr
				{
					OFFSET 3.198488 0.000000 0.000000 
					CHANNELS 3 Zrotation Yrotation Xrotation
					JOINT lForeArm
					{
						OFFSET 10.139888 0.000000 0.000000 
						CHANNELS 3 Yrotation Zrotation Xrotation
						JOINT lHand
						{
							OFFSET 8.370511 0.000000 0.000000 
							CHANNELS 3 Zrotation Yrotation Xrotation
							End Site
							{
								OFFSET 4.083176 0.000000 0.000000 
							}
						}
					}
				}
			}
			JOINT rCollar
			{
				OFFSET -3.470700 6.669187 -0.816635 
				CHANNELS 3 Yrotation Zrotation Xrotation
				JOINT rShldr
				{
					OFFSET -3.198488 0.000000 0.000000 
					CHANNELS 3 Zrotation Yrotation Xrotation
					JOINT rForeArm
					{
						OFFSET -10.139888 0.000000 0.000000 
						CHANNELS 3 Yrotation Zrotation Xrotation
						JOINT rHand
						{
							OFFSET -8.370511 0.000000 0.000000 
							CHANNELS 3 Zrotation Yrotation Xrotation
							End Site
							{
								OFFSET -4.083176 0.000000 0.000000 
							}
						}
					}
				}
			}
		}
	}
	JOINT lThigh
	{
		OFFSET 5.308129 -1.633274 1.361059 
		CHANNELS 3 Xrotation Zrotation Yrotation
		JOINT lShin
		{
			OFFSET -2.041588 -20.007561 0.000000 
			CHANNELS 3 Xrotation Zrotation Yrotation
			JOINT lFoot
			{
				OFFSET 0.000000 -19.190928 -1.224953 
				CHANNELS 3 Xrotation Yrotation Zrotation
				End Site
				{
					OFFSET 0.000000 -2.449906 4.627600 
				}
			}
		}
	}
	JOINT rThigh
	{
		OFFSET -5.308129 -1.633274 1.361059 
		CHANNELS 3 Xrotation Zrotation Yrotation
		JOINT rShin
		{
			OFFSET 2.041588 -20.007561 0.000000 
			CHANNELS 3 Xrotation Zrotation Yrotation
			JOINT rFoot
			{
				OFFSET 0.000000 -19.190928 -1.224953 
				CHANNELS 3 Xrotation Yrotation Zrotation
				End Site
				{
					OFFSET 0.000000 -2.449906 4.627600 
				}
			}
		}
	}
}
MOTION
Frames: 18
Frame Time: 0.033333
7.401456 45.582844 4.554893 -7.798322 -4.972464 -39.631947 0.000000 0.000000 0.000000 13.194044 -0.712814 -0.840022 -6.817460 -2.650995 3.607333 30.306198 -1.736678 2.461878 -3.521967 9.154817 6.304141 -45.525467 -30.031052 -62.522717 -63.618561 -6.541632 -3.428968 8.390746 10.252742 -8.539698 3.089181 -14.089146 8.026228 86.594604 30.642376 23.663248 103.728775 4.413052 43.454468 7.822039 -7.464881 -8.246343 -9.793150 20.196913 14.393864 40.494652 -4.864054 -16.989344 -5.994838 0.156347 -0.559880 -2.109343 -10.980041 -10.933962 41.304111 -5.505115 24.267286 -20.607651 2.937053 -12.755645 
7.467768 46.124702 4.567964 -7.716635 -4.182892 -39.697018 0.000000 0.000000 0.000000 12.760177 -1.493453 -1.738963 -6.208028 -2.602319 3.587378 29.451906 -2.263468 2.501905 -3.521967 9.154817 6.304141 -44.522465 -29.607763 -62.938999 -64.349129 -6.901352 -3.137680 8.459985 9.735647 -8.550484 3.089181 -14.089146 8.026228 86.907692 30.350321 24.847382 105.588051 3.792592 42.964256 8.217175 -6.908627 -8.157875 -9.619084 19.257280 13.936661 38.348145 -5.052338 -16.971062 -3.247552 0.390807 -3.819317 -1.767875 -12.111147 -11.792582 39.202980 -4.481795 26.003862 -18.904016 2.502442 -11.707468 
7.516171 46.506573 4.465689 -7.286468 -3.525749 -40.590981 0.000000 0.000000 0.000000 12.563925 -2.089142 -1.485524 -6.947546 -2.640363 3.900439 29.582161 -2.204517 2.736106 -3.521967 9.154817 6.304141 -41.920769 -30.790476 -64.589867 -63.429554 -6.532115 -3.072813 8.851326 9.336734 -8.566092 3.089181 -14.089146 8.026228 87.765877 31.825478 26.273397 106.418182 3.489950 43.011055 8.343708 -6.434581 -8.085268 -9.804322 19.324665 14.367875 37.359486 -5.724828 -17.008673 -0.999048 0.478927 -6.739854 -2.334254 -12.668496 -12.023373 37.875999 -3.857562 27.430027 -17.492689 2.169940 -10.771482 
7.659480 46.539940 4.271583 -6.439674 -2.974078 -41.122242 0.000000 0.000000 0.000000 12.309275 -2.372446 -1.290383 -8.240361 -2.260359 3.908983 29.933167 -2.516410 2.853955 -3.521967 9.154817 6.304141 -37.682693 -33.338764 -67.003151 -61.072090 -5.363198 -2.552511 8.227045 10.004461 -8.548521 3.089181 -14.089146 8.026228 88.895088 35.036686 26.401310 106.068550 3.686324 44.707161 10.250418 -6.626145 -8.026420 -11.062556 19.739567 14.572876 37.886169 -6.223172 -17.757460 -1.982185 0.487575 -5.429969 -3.905846 -12.756886 -11.866570 38.181278 -3.582557 28.116837 -17.060205 2.045683 -10.479381 
7.812453 46.097660 4.006035 -5.109231 -2.923884 -41.090496 0.000000 0.000000 0.000000 12.138615 -1.610856 -1.387269 -10.457197 -1.783381 3.702719 30.925594 -2.662891 2.776339 -3.521967 9.154817 6.304141 -31.760847 -36.985188 -70.800018 -57.013805 -3.131070 -1.473451 7.688892 9.837398 -8.537968 3.089181 -14.089146 8.026228 90.825790 39.875660 27.789869 103.953659 3.608868 43.327194 8.692929 -6.432194 -8.072241 -13.221653 20.982761 14.516797 39.733780 -6.220917 -18.402168 -3.957156 0.364731 -3.148991 -6.355494 -11.771014 -11.097833 40.472164 -3.999796 27.230633 -18.194599 2.326457 -11.228154 
8.048197 45.332367 3.716437 -4.213518 -2.646527 -41.020145 0.000000 0.000000 0.000000 12.104572 -1.064171 -1.318676 -12.659091 -1.452247 3.575297 31.528687 -2.350854 2.726721 -3.521967 9.154817 6.304141 -24.278517 -42.069530 -75.349030 -49.598244 1.444816 0.582493 8.022698 8.097809 -8.556568 3.089181 -14.089146 8.026228 93.142540 45.132034 28.921221 99.600685 3.734897 43.843300 8.206327 -6.626365 -8.120996 -15.594544 21.608301 14.168261 41.885910 -5.849693 -17.501215 -6.679058 0.142405 -0.427608 -9.675419 -11.050766 -10.306358 44.755516 -5.136651 25.430363 -19.830803 2.713191 -12.270598 
8.252301 44.405190 3.372288 -4.382876 -2.657862 -40.737022 0.000000 0.000000 0.000000 13.023168 -0.732261 -1.201323 -14.224426 -1.219010 3.018141 31.736549 -2.478478 2.296997 -3.521967 9.154817 6.304141 -11.682543 -49.391281 -83.028770 -33.904144 11.442295 2.343724 7.977427 7.250214 -8.558785 3.089181 -14.089146 8.026228 96.672058 50.127869 31.268774 92.641411 3.379268 46.838120 7.429510 -7.160511 -8.223580 -17.928144 21.998720 13.906051 45.637688 -5.166808 -17.003422 -8.898771 -0.177938 1.950214 -12.349330 -10.346757 -9.448191 49.715290 -6.835106 22.640926 -21.717077 3.160193 -13.224775 
8.417749 43.431625 3.099451 -5.343442 -2.547555 -39.098808 0.000000 0.000000 0.000000 16.025860 -1.813755 -3.097551 -16.809450 -0.888092 2.070518 32.210777 -2.352629 1.573345 -3.521967 9.154817 6.304141 2.505050 -51.953106 -94.125381 -24.350845 17.312208 2.096313 8.233024 7.185833 -8.571493 3.089181 -14.089146 8.026228 100.349472 54.535896 32.625374 88.315025 3.908000 50.318584 6.667754 -7.577896 -8.313269 -20.641956 21.685242 13.146160 50.249653 -4.252005 -18.086399 -9.987629 -0.375456 3.383597 -13.726810 -10.504049 -9.279069 54.284115 -8.211297 19.731951 -24.001247 3.707055 -14.266150 
8.475286 42.619690 2.903646 -5.815332 -2.413343 -37.646812 0.000000 0.000000 0.000000 18.317261 -2.638767 -4.379794 -19.176596 -0.810380 1.162131 33.256435 -1.796704 0.791239 -3.521967 9.154817 6.304141 10.168674 -52.033566 -101.448494 -23.137178 17.863007 2.123027 8.211844 6.661577 -8.569942 3.089181 -14.089146 8.026228 102.221497 57.084587 32.309063 87.115509 4.744195 50.970562 6.026127 -8.092207 -8.390768 -22.890944 21.973064 12.904576 53.851429 -3.872168 -19.586292 -10.881234 -0.599364 4.710993 -14.676008 -10.359722 -9.175815 57.502796 -9.176337 16.787271 -26.125229 4.292935 -15.260469 
8.428247 42.049076 2.809445 -6.043382 -2.855953 -36.997368 0.000000 0.000000 0.000000 19.431656 -2.747114 -4.028167 -19.488594 -1.005840 0.351508 33.749546 -0.888672 0.029293 -3.521967 9.154817 6.304141 14.031216 -53.142773 -105.185165 -23.219847 17.976095 2.274285 8.405164 6.196817 -8.587821 3.089181 -14.089146 8.026228 100.997673 57.687225 29.944433 88.148392 5.266679 50.848309 5.865274 -7.592698 -8.343996 -23.699591 23.044510 13.295688 56.071705 -3.825604 -20.904537 -12.286524 -0.961576 6.534946 -15.062268 -9.779800 -9.085734 59.792522 -9.764636 15.037799 -27.338392 4.650555 -15.873662 
8.344927 41.855751 2.774528 -6.017578 -3.100032 -36.164883 0.000000 0.000000 0.000000 19.090492 -2.387559 -3.714221 -18.344501 -1.152333 -0.254051 33.752510 -0.283192 -0.507855 -3.521967 9.154817 6.304141 14.245289 -54.842667 -105.052315 -23.133865 18.340504 2.356594 8.068598 6.156525 -8.562810 3.089181 -14.089146 8.026228 98.051956 56.191082 27.349689 90.663055 5.503923 50.108913 6.727750 -7.531831 -8.297930 -24.233093 23.537237 13.209777 56.909710 -3.745111 -21.839544 -12.625985 -1.089969 7.106401 -14.978173 -9.539134 -9.376937 60.480862 -9.723330 14.270810 -27.822468 4.796421 -16.124191 
8.227463 42.069920 2.821714 -6.213116 -3.128329 -35.441727 0.000000 0.000000 0.000000 18.196470 -1.773904 -3.566370 -16.540092 -1.298825 -0.127142 32.968678 0.009765 -0.419922 -3.521967 9.154817 6.304141 10.321900 -56.553329 -101.139320 -22.788599 18.774954 1.831984 7.967645 6.537779 -8.552625 3.089181 -14.089146 8.026228 95.825638 53.672462 26.834642 92.994759 5.173506 49.125809 6.219307 -7.890399 -8.362896 -23.602589 23.231001 13.068521 55.770954 -3.805504 -22.185934 -12.208613 -1.002572 6.817836 -13.959398 -9.877456 -10.059519 59.406601 -9.176468 14.562792 -27.696474 4.781259 -16.110291 
8.091698 42.692879 2.929259 -6.325546 -3.090866 -35.587353 0.000000 0.000000 0.000000 16.940899 -1.326938 -2.422582 -15.290490 -1.210935 -0.117368 33.227093 -0.703111 -0.361421 -3.521967 9.154817 6.304141 0.629898 -57.747372 -92.712036 -26.029753 17.122646 2.205512 7.634911 6.949843 -8.540960 3.089181 -14.089146 8.026228 93.436081 49.764359 26.795149 95.528854 4.661891 47.414963 6.563407 -7.670665 -8.317434 -21.774214 22.709827 13.198126 52.915745 -4.184138 -21.790100 -11.266636 -0.779320 5.765027 -12.458626 -10.270722 -10.544789 56.595631 -8.288421 15.878358 -26.754660 4.564852 -15.740440 
7.950414 43.522293 3.025346 -6.095609 -3.090010 -36.017670 0.000000 0.000000 0.000000 15.794175 -1.220272 -1.523924 -13.467822 -1.503906 0.039049 32.758160 -0.712878 -0.341892 -3.521967 9.154817 6.304141 -12.394110 -56.099907 -82.163986 -33.876926 12.359224 2.403305 7.866569 6.970858 -8.553946 3.089181 -14.089146 8.026228 91.651535 44.845825 26.821180 98.871315 4.256064 45.541389 7.055896 -7.646384 -8.309500 -19.734381 22.213184 13.209009 49.018284 -4.591303 -21.102957 -9.718548 -0.464353 3.953809 -10.819649 -10.399436 -10.856212 52.718761 -7.116462 17.732609 -25.148331 4.106106 -15.015071 
7.844393 44.447861 3.095420 -5.572516 -2.793084 -36.358982 0.000000 0.000000 0.000000 14.550586 -1.181482 -0.937704 -11.857707 -1.874999 0.068323 32.584698 -0.820286 -0.459077 -3.521967 9.154817 6.304141 -23.284813 -53.135250 -73.513710 -40.536480 8.219987 1.277121 7.210847 8.324640 -8.530727 3.089181 -14.089146 8.026228 90.372818 39.444450 26.941555 102.114098 3.848634 44.789734 7.478351 -7.290779 -8.244992 -18.122578 21.557989 12.961029 44.865551 -4.906557 -20.854252 -7.224293 -0.039772 1.094849 -9.361790 -10.560546 -11.116589 48.323662 -5.778215 19.644274 -23.053404 3.520214 -13.904035 
7.763999 45.357487 3.154391 -5.095764 -2.357239 -36.452141 0.000000 0.000000 0.000000 13.514663 -1.122893 -0.947467 -10.356921 -2.333935 0.371184 32.310379 -0.878888 -0.371200 -3.521967 9.154817 6.304141 -31.437387 -48.977741 -67.645164 -46.437897 4.726358 1.543454 6.606080 8.667948 -8.509875 3.089181 -14.089146 8.026228 89.265640 34.534897 27.340357 104.347412 3.567043 44.818703 8.168062 -7.304760 -8.219831 -16.591528 20.604877 12.569425 40.281059 -5.150809 -19.531528 -4.562661 0.284548 -2.063485 -7.761669 -10.913170 -11.504642 43.617390 -4.294168 21.392609 -20.965271 2.971726 -12.730292 
7.659584 46.101360 3.228046 -4.462955 -2.212215 -36.574650 0.000000 0.000000 0.000000 12.798334 -0.878776 -0.986512 -9.392949 -2.538912 0.625252 32.093578 -0.996087 -0.214981 -3.521967 9.154817 6.304141 -36.715240 -44.696678 -64.426346 -52.082516 1.086155 0.120006 7.199070 8.870181 -8.520097 3.089181 -14.089146 8.026228 88.149200 29.842142 27.560312 105.884064 3.376727 43.700649 7.444688 -6.923020 -8.199744 -15.184340 20.212158 12.401098 36.272247 -5.301401 -18.597612 -2.603567 0.441882 -4.466837 -6.131997 -10.826966 -11.838614 39.111023 -2.812485 22.452681 -19.159439 2.525870 -11.720663 
7.580120 46.566948 3.206284 -3.965729 -2.149384 -36.856415 0.000000 0.000000 0.000000 12.640467 -0.966702 -0.800997 -8.974526 -2.626664 0.850059 31.679859 -0.507813 -0.019617 -3.521967 9.154817 6.304141 -38.723076 -41.796844 -63.172550 -55.659103 -1.112997 -1.042077 8.230380 8.383480 -8.554569 3.089181 -14.089146 8.026228 86.922508 26.329714 26.707048 106.833511 3.441090 42.774418 7.612486 -6.815293 -8.171136 -14.080706 20.338757 12.659597 33.382156 -5.744600 -18.784777 -1.188515 0.459681 -5.786369 -5.261801 -10.549339 -11.887557 36.234333 -1.813725 22.956367 -17.997908 2.264168 -10.893937 
